<svg width="53" height="50" viewBox="0 0 53 50" fill="none" xmlns="http://www.w3.org/2000/svg">
<path d="M42.5346 43.75L28.8627 30.625C27.7776 31.4583 26.5298 32.1181 25.1192 32.6042C23.7086 33.0903 22.2076 33.3333 20.6162 33.3333C16.6737 33.3333 13.3371 32.0226 10.6064 29.401C7.87563 26.7795 6.51025 23.5764 6.51025 19.7917C6.51025 16.0069 7.87563 12.8038 10.6064 10.1823C13.3371 7.56076 16.6737 6.25 20.6162 6.25C24.5586 6.25 27.8952 7.56076 30.6259 10.1823C33.3567 12.8038 34.7221 16.0069 34.7221 19.7917C34.7221 21.3194 34.4689 22.7604 33.9625 24.1146C33.4561 25.4687 32.7689 26.6667 31.9009 27.7083L45.5728 40.8333L42.5346 43.75ZM20.6162 29.1667C23.3288 29.1667 25.6346 28.2552 27.5335 26.4323C29.4323 24.6094 30.3818 22.3958 30.3818 19.7917C30.3818 17.1875 29.4323 14.974 27.5335 13.151C25.6346 11.3281 23.3288 10.4167 20.6162 10.4167C17.9035 10.4167 15.5977 11.3281 13.6988 13.151C11.8 14.974 10.8505 17.1875 10.8505 19.7917C10.8505 22.3958 11.8 24.6094 13.6988 26.4323C15.5977 28.2552 17.9035 29.1667 20.6162 29.1667Z" fill="#F9EEE7"/>
</svg>
